<?xml version="1.0" encoding="utf-8"?>
<!-- Generator: Adobe Illustrator 16.0.4, SVG Export Plug-In . SVG Version: 6.00 Build 0)  -->
<!DOCTYPE svg PUBLIC "-//W3C//DTD SVG 1.1//EN" "http://www.w3.org/Graphics/SVG/1.1/DTD/svg11.dtd">
<svg version="1.1" id="Layer_1" xmlns="http://www.w3.org/2000/svg" xmlns:xlink="http://www.w3.org/1999/xlink" x="0px" y="0px"
	 width="57.076px" height="35px" viewBox="0 0 57.076 35" enable-background="new 0 0 57.076 35" xml:space="preserve">
<g>
	<linearGradient id="SVGID_1_" gradientUnits="userSpaceOnUse" x1="-341.998" y1="727.4268" x2="-83.4904" y2="549.1987">
		<stop  offset="0" style="stop-color:#004EBC"/>
		<stop  offset="0.0328" style="stop-color:#0059BE"/>
		<stop  offset="0.3448" style="stop-color:#007CD6"/>
		<stop  offset="0.7789" style="stop-color:#00A7F4"/>
		<stop  offset="1" style="stop-color:#00B8FF"/>
	</linearGradient>
	<path fill="url(#SVGID_1_)" d="M-116.037,569.965c-7.918-32.246-37.014-56.168-71.702-56.168
		c-28.944,0-53.994,16.657-66.098,40.906c-5.986-3.805-13.083-6.018-20.701-6.018c-21.159,0-38.338,17.006-38.635,38.096
		c-28.818,3.219-51.438,27.651-51.438,57.328c0,31.854,25.45,57.678,57.45,57.698V702h185.156l0,0c0,0,0.144,0,0.184,0
		c36.479,0,66.05-29.667,66.05-66.145C-55.771,601.326-82.268,572.895-116.037,569.965z"/>
	<text transform="matrix(1 0 0 1 -282.5273 650.2422)" fill="#FFFFFF" font-family="'Consolas-Bold'" font-size="117.4318">&gt;_</text>
</g>
<text transform="matrix(1 0 0 1 0.4131 673.8672)" font-family="'AvenirNext-Bold'" font-size="116.1874">Scaling SaaS</text>
<linearGradient id="SVGID_2_" gradientUnits="userSpaceOnUse" x1="-341.9971" y1="211.4277" x2="-83.4895" y2="33.1998">
	<stop  offset="0" style="stop-color:#004EBC"/>
	<stop  offset="0.0328" style="stop-color:#0059BE"/>
	<stop  offset="0.3448" style="stop-color:#007CD6"/>
	<stop  offset="0.7789" style="stop-color:#00A7F4"/>
	<stop  offset="1" style="stop-color:#00B8FF"/>
</linearGradient>
<path fill="url(#SVGID_2_)" d="M-116.037,53.965c-7.918-32.246-37.014-56.168-71.701-56.168c-28.945,0-53.994,16.657-66.098,40.906
	c-5.986-3.805-13.084-6.018-20.701-6.018c-21.16,0-38.338,17.006-38.636,38.096C-341.99,74-364.61,98.433-364.61,128.109
	c0,31.854,25.45,57.678,57.45,57.698V186h185.156c0,0,0.144,0,0.184,0c36.479,0,66.05-29.667,66.05-66.145
	C-55.771,85.326-82.268,56.895-116.037,53.965z M-262.459,135.561l-8.887-9.06l28.383-23.395l-28.383-23.566l8.887-9.06
	l38.647,32.512L-262.459,135.561z M-153.16,158h-65v-11h65V158z"/>
<linearGradient id="SVGID_3_" gradientUnits="userSpaceOnUse" x1="3.9727" y1="39.6797" x2="51.9457" y2="6.6047">
	<stop  offset="0" style="stop-color:#004EBC"/>
	<stop  offset="0.0328" style="stop-color:#0059BE"/>
	<stop  offset="0.3448" style="stop-color:#007CD6"/>
	<stop  offset="0.7789" style="stop-color:#00A7F4"/>
	<stop  offset="1" style="stop-color:#00B8FF"/>
</linearGradient>
<path fill="url(#SVGID_3_)" d="M45.904,10.411C44.437,4.435,39.044,0,32.614,0c-5.365,0-10.01,3.088-12.252,7.583
	c-1.11-0.706-2.426-1.115-3.838-1.115c-3.921,0-7.107,3.152-7.16,7.062C4.021,14.125,0.01,18.654,0.01,24.155
	c0,5.904,3.83,10.842,10.83,10.847L44.798,35c0,0,0.027,0,0.034,0c6.763,0,12.244-5.557,12.244-12.317
	C57.076,16.281,52.164,10.955,45.904,10.411z M18.764,25.536l-1.648-1.679l5.262-4.336l-5.262-4.368l1.648-1.68l7.164,6.026
	L18.764,25.536z M40.84,30h-14v-2h14V30z"/>
<linearGradient id="SVGID_4_" gradientUnits="userSpaceOnUse" x1="386.5908" y1="293.9258" x2="770.5489" y2="29.2061">
	<stop  offset="0" style="stop-color:#004EBC"/>
	<stop  offset="0.0328" style="stop-color:#0059BE"/>
	<stop  offset="0.3448" style="stop-color:#007CD6"/>
	<stop  offset="0.7789" style="stop-color:#00A7F4"/>
	<stop  offset="1" style="stop-color:#00B8FF"/>
</linearGradient>
<rect x="430.84" y="10" fill="url(#SVGID_4_)" width="300" height="300"/>
<path fill="#FFFFFF" d="M648.011,132.951c-5.646-22.994-26.394-40.052-51.128-40.052c-20.641,0-38.502,11.878-47.133,29.169
	c-4.27-2.713-9.33-4.291-14.762-4.291c-15.089,0-27.338,12.126-27.551,27.165c-20.549,2.295-36.622,19.717-36.622,40.879
	c0,22.714,18.024,41.128,41.024,41.143V227h131.916c0,0,0.103,0,0.131,0c26.012,0,47.099-21.104,47.099-47.115
	C690.985,155.263,672.091,135.04,648.011,132.951z M543.601,191.134l-6.337-6.46l20.239-16.682l-20.239-16.805l6.337-6.46
	l27.559,23.183L543.601,191.134z M621.84,207h-46v-8h46V207z"/>
</svg>
