<?xml version="1.0" encoding="utf-8"?>
<!-- Generator: Adobe Illustrator 16.0.4, SVG Export Plug-In . SVG Version: 6.00 Build 0)  -->
<!DOCTYPE svg PUBLIC "-//W3C//DTD SVG 1.1//EN" "http://www.w3.org/Graphics/SVG/1.1/DTD/svg11.dtd">
<svg version="1.1" id="Layer_1" xmlns="http://www.w3.org/2000/svg" xmlns:xlink="http://www.w3.org/1999/xlink" x="0px" y="0px"
	 width="57.076px" height="35px" viewBox="0 0 57.076 35" enable-background="new 0 0 57.076 35" xml:space="preserve">
<path fill="#FFFFFF" d="M45.475,10.411C44.007,4.435,38.614,0,32.185,0c-5.365,0-10.01,3.088-12.252,7.583
	c-1.11-0.706-2.426-1.115-3.838-1.115c-3.921,0-7.107,3.152-7.16,7.062C3.591,14.125-0.42,18.654-0.42,24.155
	c0,5.904,3.83,10.843,10.83,10.848L44.368,35c0,0,0.027,0,0.034,0c6.763,0,12.244-5.557,12.244-12.317
	C56.646,16.282,51.734,10.955,45.475,10.411z M18.334,25.536l-1.648-1.679l5.262-4.336l-5.262-4.368l1.648-1.68l7.164,6.026
	L18.334,25.536z M40.076,30h-14v-2h14V30z"/>
</svg>
